<svg width="686" height="129" viewBox="0 0 686 129" fill="none" xmlns="http://www.w3.org/2000/svg">
<path fill-rule="evenodd" clip-rule="evenodd" d="M16.4205 71.5144C15.0138 69.9331 12.4601 70.2631 11.5669 72.1818C4.51936 87.3209 0.418295 104.109 0.000829021 121.808C-0.0382394 123.465 1.30862 124.809 2.96548 124.809H58.5762C61.289 124.809 62.6806 121.442 60.7854 119.501C50.7336 109.205 32.2187 89.273 16.4205 71.5144ZM26.1554 48.292C25.2707 49.4309 25.3494 51.0322 26.3267 52.0927C51.5798 79.4936 88.0156 117.828 89.2745 118.977C91.2034 120.654 93.7193 121.493 96.8223 121.493C100.009 121.493 102.525 120.78 104.37 119.354C106.215 117.845 107.138 115.79 107.138 113.19C107.138 111.01 106.383 109.207 104.873 107.781C103.448 106.355 101.645 105.181 99.4641 104.259C97.3675 103.336 94.3483 102.288 90.4067 101.114C84.7038 99.3525 80.0493 97.5914 76.4431 95.8302C72.8369 94.069 69.7339 91.4692 67.1341 88.0308C64.5343 84.5923 63.2344 80.1055 63.2344 74.5704C63.2344 66.3516 66.2116 59.9359 72.166 55.3234C78.1204 50.6269 85.8779 48.2787 95.4386 48.2787C105.167 48.2787 113.008 50.6269 118.963 55.3234C120.932 56.8489 124.809 55.5154 124.809 53.0243V2.96544C124.809 1.30859 123.463 -0.0382584 121.807 0.000829861C82.9146 0.918622 48.4241 19.6224 26.1554 48.292ZM124.809 77.6962C124.809 76.0393 123.466 74.6962 121.809 74.6962H108.079C106.491 74.6962 105.24 73.4303 104.747 71.9204C104.236 70.359 103.356 69.0618 102.106 68.0289C100.177 66.3516 97.7029 65.513 94.6838 65.513C92.084 65.513 89.9873 66.2258 88.3939 67.6515C86.8005 68.9934 86.0037 70.9642 86.0037 73.564C86.0037 76.4154 87.3456 78.6379 90.0293 80.2313C92.7129 81.8247 96.9062 83.544 102.609 85.389C108.312 87.3179 112.924 89.1629 116.447 90.9241C117.222 91.3026 117.973 91.7178 118.702 92.1699C121.067 93.6376 124.809 92.1243 124.809 89.3407V77.6962Z" fill="#F06C0D"/>
<path d="M450.244 68.6424C452.76 64.7846 455.905 61.7655 459.679 59.585C463.453 57.3207 467.646 56.1885 472.258 56.1885V78.9579H466.346C460.979 78.9579 456.953 80.132 454.269 82.4802C451.586 84.7445 450.244 88.7701 450.244 94.5568V127.138H428.732V56.9433H450.244V68.6424Z" fill="#2C2D2D"/>
<path d="M339.075 91.9147C339.075 84.7023 340.417 78.3704 343.101 72.9192C345.868 67.468 349.6 63.2747 354.297 60.3394C358.993 57.4042 364.235 55.9365 370.021 55.9365C374.969 55.9365 379.289 56.9429 382.979 58.9557C386.753 60.9684 389.646 63.6102 391.659 66.8809V56.9429H413.17V127.138H391.659V117.2C389.562 120.471 386.627 123.112 382.853 125.125C379.163 127.138 374.844 128.144 369.896 128.144C364.193 128.144 358.993 126.677 354.297 123.741C349.6 120.722 345.868 116.487 343.101 111.036C340.417 105.501 339.075 99.1271 339.075 91.9147ZM391.659 92.0405C391.659 86.6731 390.149 82.4379 387.13 79.3349C384.195 76.2319 380.588 74.6804 376.311 74.6804C372.034 74.6804 368.386 76.2319 365.367 79.3349C362.432 82.354 360.964 86.5473 360.964 91.9147C360.964 97.282 362.432 101.559 365.367 104.746C368.386 107.849 372.034 109.401 376.311 109.401C380.588 109.401 384.195 107.849 387.13 104.746C390.149 101.643 391.659 97.4078 391.659 92.0405Z" fill="#2C2D2D"/>
<path d="M327.762 34.0479V127.138H306.251V34.0479H327.762Z" fill="#2C2D2D"/>
<path d="M290.663 34.0479V127.138H269.151V34.0479H290.663Z" fill="#2C2D2D"/>
<path d="M257.803 90.9083C257.803 92.921 257.677 95.0177 257.426 97.1982H208.742C209.078 101.559 210.461 104.914 212.893 107.262C215.409 109.526 218.47 110.658 222.077 110.658C227.444 110.658 231.176 108.394 233.273 103.865H256.168C254.994 108.478 252.855 112.629 249.752 116.319C246.733 120.009 242.917 122.903 238.305 124.999C233.692 127.096 228.534 128.144 222.831 128.144C215.954 128.144 209.832 126.677 204.465 123.741C199.098 120.806 194.904 116.613 191.885 111.162C188.866 105.71 187.356 99.3367 187.356 92.0405C187.356 84.7442 188.824 78.3704 191.759 72.9192C194.779 67.468 198.972 63.2747 204.339 60.3394C209.706 57.4042 215.871 55.9365 222.831 55.9365C229.624 55.9365 235.663 57.3622 240.946 60.2136C246.23 63.0651 250.339 67.1325 253.274 72.416C256.294 77.6995 257.803 83.8636 257.803 90.9083ZM235.789 85.2474C235.789 81.5573 234.531 78.622 232.015 76.4415C229.499 74.261 226.354 73.1708 222.58 73.1708C218.974 73.1708 215.913 74.2191 213.397 76.3157C210.964 78.4124 209.455 81.3896 208.868 85.2474H235.789Z" fill="#2C2D2D"/>
<path d="M179.651 108.897V127.138H168.706C160.907 127.138 154.827 125.251 150.466 121.477C146.105 117.619 143.924 111.371 143.924 102.733V74.8057H135.37V56.9425H143.924V39.834H165.436V56.9425H179.525V74.8057H165.436V102.984C165.436 105.081 165.939 106.591 166.945 107.513C167.952 108.436 169.629 108.897 171.977 108.897H179.651Z" fill="#2C2D2D"/>
<path d="M675.152 94.3958V116.934C675.152 118.795 675.547 120.12 676.338 120.911C677.129 121.656 678.501 122.028 680.455 122.028H685.13V127.401H679.408C675.873 127.401 673.221 126.587 671.453 124.958C669.686 123.33 668.802 120.655 668.802 116.934V94.3958H663.848V89.1625H668.802V79.5332H675.152V89.1625H685.13V94.3958H675.152Z" fill="#2C2D2D"/>
<path d="M644.488 128.028C641.557 128.028 638.929 127.54 636.603 126.563C634.277 125.54 632.439 124.144 631.09 122.376C629.741 120.562 628.997 118.492 628.857 116.166H635.417C635.603 118.073 636.486 119.632 638.068 120.841C639.696 122.051 641.813 122.655 644.418 122.655C646.837 122.655 648.744 122.12 650.14 121.051C651.535 119.981 652.233 118.632 652.233 117.003C652.233 115.329 651.489 114.096 650 113.305C648.511 112.468 646.209 111.654 643.092 110.863C640.254 110.119 637.929 109.374 636.114 108.63C634.347 107.839 632.811 106.7 631.509 105.211C630.253 103.676 629.625 101.676 629.625 99.2101C629.625 97.2564 630.206 95.4654 631.369 93.8373C632.532 92.2091 634.184 90.9299 636.324 89.9995C638.463 89.0226 640.906 88.5342 643.65 88.5342C647.883 88.5342 651.303 89.6041 653.908 91.7439C656.513 93.8838 657.908 96.8144 658.094 100.536H651.744C651.605 98.5356 650.791 96.9307 649.302 95.7213C647.86 94.5118 645.906 93.907 643.441 93.907C641.162 93.907 639.347 94.3955 637.998 95.3724C636.649 96.3493 635.975 97.6285 635.975 99.2101C635.975 100.466 636.37 101.513 637.161 102.35C637.998 103.141 639.022 103.792 640.231 104.304C641.487 104.769 643.208 105.304 645.395 105.909C648.139 106.653 650.372 107.397 652.093 108.142C653.815 108.839 655.28 109.909 656.489 111.351C657.745 112.793 658.397 114.677 658.443 117.003C658.443 119.097 657.862 120.981 656.699 122.655C655.536 124.33 653.884 125.656 651.744 126.633C649.651 127.563 647.232 128.028 644.488 128.028Z" fill="#2C2D2D"/>
<path d="M622.569 106.816C622.569 108.025 622.499 109.305 622.359 110.654H591.797C592.03 114.422 593.309 117.376 595.635 119.515C598.007 121.609 600.868 122.655 604.217 122.655C606.962 122.655 609.241 122.027 611.056 120.771C612.916 119.469 614.219 117.748 614.963 115.608H621.801C620.778 119.283 618.731 122.283 615.661 124.609C612.591 126.889 608.776 128.028 604.217 128.028C600.589 128.028 597.333 127.214 594.448 125.586C591.611 123.958 589.378 121.655 587.75 118.678C586.122 115.654 585.308 112.165 585.308 108.211C585.308 104.257 586.098 100.792 587.68 97.8146C589.262 94.8374 591.471 92.558 594.309 90.9764C597.193 89.3482 600.496 88.5342 604.217 88.5342C607.846 88.5342 611.056 89.325 613.847 90.9066C616.638 92.4882 618.778 94.6746 620.266 97.4657C621.801 100.21 622.569 103.327 622.569 106.816ZM616.01 105.49C616.01 103.071 615.475 101.001 614.405 99.2799C613.335 97.5122 611.87 96.1864 610.009 95.3026C608.195 94.3722 606.171 93.907 603.938 93.907C600.728 93.907 597.984 94.9305 595.704 96.9773C593.472 99.0241 592.192 101.862 591.867 105.49H616.01Z" fill="#2C2D2D"/>
<path d="M562.801 121.539L574.664 89.1621H581.432L566.43 127.4H559.033L544.031 89.1621H550.869L562.801 121.539Z" fill="#2C2D2D"/>
<path d="M522.564 88.4648C527.216 88.4648 530.984 89.8837 533.868 92.7213C536.752 95.5124 538.194 99.5595 538.194 104.863V127.401H531.914V105.77C531.914 101.955 530.961 99.0478 529.053 97.0475C527.146 95.0007 524.541 93.9773 521.238 93.9773C517.889 93.9773 515.214 95.0239 513.214 97.1173C511.26 99.2106 510.283 102.258 510.283 106.258V127.401H503.934V89.1626H510.283V94.6053C511.539 92.6515 513.237 91.1396 515.377 90.0697C517.563 88.9998 519.959 88.4648 522.564 88.4648Z" fill="#2C2D2D"/>
<path d="M493.111 78.7656V127.401H486.762V78.7656H493.111Z" fill="#2C2D2D"/>
</svg>
