<svg width="125" height="125" viewBox="0 0 125 125" fill="none" xmlns="http://www.w3.org/2000/svg">
<path fill-rule="evenodd" clip-rule="evenodd" d="M16.4205 71.5144C15.0138 69.9331 12.4601 70.2631 11.5669 72.1818C4.51936 87.3209 0.418295 104.109 0.000829021 121.808C-0.0382394 123.465 1.30862 124.809 2.96548 124.809H58.5762C61.289 124.809 62.6806 121.442 60.7854 119.501C50.7336 109.205 32.2187 89.273 16.4205 71.5144ZM26.1554 48.292C25.2707 49.4309 25.3494 51.0322 26.3267 52.0927C51.5798 79.4936 88.0156 117.828 89.2745 118.977C91.2034 120.654 93.7193 121.493 96.8223 121.493C100.009 121.493 102.525 120.78 104.37 119.354C106.215 117.845 107.138 115.79 107.138 113.19C107.138 111.01 106.383 109.207 104.873 107.781C103.448 106.355 101.645 105.181 99.4641 104.259C97.3675 103.336 94.3483 102.288 90.4067 101.114C84.7038 99.3525 80.0493 97.5914 76.4431 95.8302C72.8369 94.069 69.7339 91.4692 67.1341 88.0308C64.5343 84.5923 63.2344 80.1055 63.2344 74.5704C63.2344 66.3516 66.2116 59.9359 72.166 55.3234C78.1204 50.6269 85.8779 48.2787 95.4386 48.2787C105.167 48.2787 113.008 50.6269 118.963 55.3234V55.3234C120.932 56.8489 124.809 55.5154 124.809 53.0243V2.96544C124.809 1.30859 123.463 -0.0382584 121.807 0.000829861C82.9146 0.918622 48.4241 19.6224 26.1554 48.292ZM124.809 77.6962C124.809 76.0394 123.466 74.6962 121.809 74.6962H108.079C106.491 74.6962 105.24 73.4303 104.747 71.9204C104.236 70.359 103.356 69.0618 102.106 68.0289C100.177 66.3516 97.7029 65.513 94.6838 65.513C92.084 65.513 89.9873 66.2258 88.3939 67.6515C86.8005 68.9934 86.0037 70.9642 86.0037 73.564C86.0037 76.4154 87.3456 78.6379 90.0293 80.2313C92.7129 81.8247 96.9062 83.544 102.609 85.389C108.312 87.3179 112.924 89.1629 116.447 90.9241C117.222 91.3026 117.973 91.7178 118.702 92.1699C121.067 93.6376 124.809 92.1243 124.809 89.3407V77.6962Z" fill="#4A00FF"/>
</svg>
