<svg width="633" height="221" viewBox="0 0 633 221" fill="none" xmlns="http://www.w3.org/2000/svg">
<path fill-rule="evenodd" clip-rule="evenodd" d="M16.4205 119.514C15.0138 117.933 12.4601 118.263 11.5669 120.182C4.51936 135.321 0.418295 152.109 0.000829021 169.808C-0.0382394 171.465 1.30862 172.809 2.96548 172.809H58.5762C61.289 172.809 62.6806 169.442 60.7854 167.501C50.7336 157.205 32.2187 137.273 16.4205 119.514ZM26.1554 96.292C25.2707 97.4309 25.3494 99.0322 26.3267 100.093C51.5798 127.494 88.0156 165.828 89.2745 166.977C91.2034 168.654 93.7193 169.493 96.8223 169.493C100.009 169.493 102.525 168.78 104.37 167.354C106.215 165.845 107.138 163.79 107.138 161.19C107.138 159.01 106.383 157.207 104.873 155.781C103.448 154.355 101.645 153.181 99.4641 152.259C97.3675 151.336 94.3483 150.288 90.4067 149.114C84.7038 147.353 80.0493 145.591 76.4431 143.83C72.8369 142.069 69.7339 139.469 67.1341 136.031C64.5343 132.592 63.2344 128.106 63.2344 122.57C63.2344 114.352 66.2116 107.936 72.166 103.323C78.1204 98.6269 85.8779 96.2787 95.4386 96.2787C105.167 96.2787 113.008 98.6269 118.963 103.323V103.323C120.932 104.849 124.809 103.515 124.809 101.024V50.9654C124.809 49.3086 123.463 47.9617 121.807 48.0008C82.9146 48.9186 48.4241 67.6224 26.1554 96.292ZM124.809 125.696C124.809 124.039 123.466 122.696 121.809 122.696H108.079C106.491 122.696 105.24 121.43 104.747 119.92C104.236 118.359 103.356 117.062 102.106 116.029C100.177 114.352 97.7029 113.513 94.6838 113.513C92.084 113.513 89.9873 114.226 88.3939 115.652C86.8005 116.993 86.0037 118.964 86.0037 121.564C86.0037 124.415 87.3456 126.638 90.0293 128.231C92.7129 129.825 96.9062 131.544 102.609 133.389C108.312 135.318 112.924 137.163 116.447 138.924C117.222 139.303 117.973 139.718 118.702 140.17C121.067 141.638 124.809 140.124 124.809 137.341V125.696Z" fill="#4A00FF"/>
<path d="M452.682 97.951C455.198 94.0932 458.343 91.0741 462.117 88.8936C465.891 86.6293 470.084 85.4971 474.697 85.4971V108.266H468.784C463.417 108.266 459.392 109.441 456.708 111.789C454.024 114.053 452.682 118.079 452.682 123.865V156.447H431.171V86.2519H452.682V97.951Z" fill="#4A00FF"/>
<path d="M341.514 121.223C341.514 114.011 342.856 107.679 345.539 102.228C348.307 96.7766 352.039 92.5833 356.735 89.648C361.432 86.7128 366.673 85.2451 372.46 85.2451C377.408 85.2451 381.727 86.2515 385.417 88.2643C389.191 90.277 392.084 92.9188 394.097 96.1895V86.2515H415.608V156.447H394.097V146.509C392 149.779 389.065 152.421 385.291 154.434C381.601 156.447 377.282 157.453 372.334 157.453C366.631 157.453 361.432 155.985 356.735 153.05C352.039 150.031 348.307 145.796 345.539 140.344C342.856 134.809 341.514 128.436 341.514 121.223ZM394.097 121.349C394.097 115.982 392.588 111.746 389.568 108.643C386.633 105.54 383.027 103.989 378.75 103.989C374.473 103.989 370.825 105.54 367.805 108.643C364.87 111.663 363.402 115.856 363.402 121.223C363.402 126.591 364.87 130.868 367.805 134.055C370.825 137.158 374.473 138.709 378.75 138.709C383.027 138.709 386.633 137.158 389.568 134.055C392.588 130.952 394.097 126.716 394.097 121.349Z" fill="#4A00FF"/>
<path d="M330.201 63.3564V156.447H308.689V63.3564H330.201Z" fill="#4A00FF"/>
<path d="M293.101 63.3564V156.447H271.59V63.3564H293.101Z" fill="#4A00FF"/>
<path d="M260.242 120.217C260.242 122.23 260.116 124.326 259.864 126.507H211.181C211.516 130.868 212.9 134.222 215.332 136.571C217.848 138.835 220.909 139.967 224.515 139.967C229.882 139.967 233.614 137.703 235.711 133.174H258.606C257.432 137.787 255.294 141.938 252.191 145.628C249.171 149.318 245.356 152.211 240.743 154.308C236.13 156.405 230.973 157.453 225.27 157.453C218.393 157.453 212.271 155.985 206.903 153.05C201.536 150.115 197.343 145.922 194.324 140.47C191.304 135.019 189.795 128.645 189.795 121.349C189.795 114.053 191.263 107.679 194.198 102.228C197.217 96.7766 201.41 92.5833 206.778 89.648C212.145 86.7128 218.309 85.2451 225.27 85.2451C232.063 85.2451 238.101 86.6708 243.385 89.5222C248.668 92.3737 252.778 96.4411 255.713 101.725C258.732 107.008 260.242 113.172 260.242 120.217ZM238.227 114.556C238.227 110.866 236.969 107.931 234.453 105.75C231.937 103.57 228.792 102.479 225.018 102.479C221.412 102.479 218.351 103.528 215.835 105.624C213.403 107.721 211.893 110.698 211.306 114.556H238.227Z" fill="#4A00FF"/>
<path d="M182.089 138.205V156.446H171.145C163.346 156.446 157.265 154.559 152.904 150.785C148.543 146.927 146.363 140.68 146.363 132.041V104.114H137.809V86.2511H146.363V69.1426H167.874V86.2511H181.964V104.114H167.874V132.293C167.874 134.39 168.377 135.899 169.384 136.822C170.39 137.744 172.067 138.205 174.416 138.205H182.089Z" fill="#4A00FF"/>
<path d="M625.354 156.898L612.11 141.991V156.898H606.505V111.314H612.11V138.11L625.108 123.142H632.931L617.038 139.958L632.993 156.898H625.354Z" fill="#4A00FF"/>
<path d="M583.55 122.525C587.656 122.525 590.983 123.778 593.529 126.283C596.075 128.747 597.348 132.32 597.348 137.001V156.898H591.804V137.802C591.804 134.435 590.962 131.868 589.279 130.102C587.595 128.295 585.295 127.392 582.379 127.392C579.423 127.392 577.061 128.316 575.295 130.164C573.571 132.012 572.708 134.702 572.708 138.233V156.898H567.103V123.141H572.708V127.946C573.817 126.221 575.316 124.887 577.205 123.942C579.135 122.998 581.25 122.525 583.55 122.525Z" fill="#4A00FF"/>
<path d="M523.38 139.897C523.38 136.447 524.078 133.429 525.474 130.841C526.871 128.213 528.78 126.18 531.203 124.743C533.667 123.306 536.398 122.587 539.396 122.587C542.353 122.587 544.919 123.223 547.096 124.497C549.272 125.77 550.895 127.371 551.962 129.301V123.141H557.629V156.898H551.962V150.615C550.853 152.586 549.19 154.229 546.973 155.543C544.796 156.816 542.25 157.453 539.334 157.453C536.336 157.453 533.626 156.713 531.203 155.235C528.78 153.757 526.871 151.683 525.474 149.013C524.078 146.344 523.38 143.305 523.38 139.897ZM551.962 139.958C551.962 137.412 551.449 135.194 550.422 133.305C549.396 131.416 547.999 129.979 546.233 128.993C544.509 127.967 542.599 127.453 540.505 127.453C538.41 127.453 536.501 127.946 534.776 128.932C533.051 129.917 531.675 131.355 530.649 133.244C529.622 135.133 529.109 137.35 529.109 139.897C529.109 142.484 529.622 144.742 530.649 146.673C531.675 148.562 533.051 150.019 534.776 151.046C536.501 152.032 538.41 152.525 540.505 152.525C542.599 152.525 544.509 152.032 546.233 151.046C547.999 150.019 549.396 148.562 550.422 146.673C551.449 144.742 551.962 142.504 551.962 139.958Z" fill="#4A00FF"/>
<path d="M509.195 134.784C510.755 135.03 512.172 135.667 513.445 136.693C514.759 137.72 515.786 138.993 516.525 140.512C517.305 142.032 517.695 143.654 517.695 145.379C517.695 147.555 517.141 149.527 516.032 151.292C514.923 153.017 513.301 154.393 511.166 155.42C509.071 156.405 506.587 156.898 503.712 156.898H487.696V113.963H503.096C506.012 113.963 508.497 114.456 510.55 115.441C512.603 116.386 514.143 117.679 515.17 119.322C516.197 120.965 516.71 122.813 516.71 124.866C516.71 127.412 516.012 129.527 514.615 131.211C513.26 132.854 511.453 134.044 509.195 134.784ZM493.302 132.504H502.727C505.355 132.504 507.388 131.888 508.825 130.656C510.262 129.424 510.981 127.72 510.981 125.544C510.981 123.367 510.262 121.663 508.825 120.431C507.388 119.199 505.314 118.583 502.603 118.583H493.302V132.504ZM503.219 152.278C506.012 152.278 508.189 151.621 509.749 150.307C511.31 148.993 512.09 147.165 512.09 144.824C512.09 142.443 511.269 140.574 509.626 139.219C507.983 137.823 505.786 137.124 503.035 137.124H493.302V152.278H503.219Z" fill="#4A00FF"/>
</svg>
